<svg width="24" height="24" viewBox="0 0 24 24" fill="none" xmlns="http://www.w3.org/2000/svg">
<path fill-rule="evenodd" clip-rule="evenodd" d="M11.8001 2.25C10.0052 2.25 8.55014 3.70507 8.55014 5.5V6.5H7.75596C7.02926 6.5 6.40707 7.02092 6.27932 7.73631L4.31504 18.7363C4.15086 19.6557 4.85774 20.5 5.79168 20.5H17.7085C18.6424 20.5 19.3493 19.6557 19.1851 18.7363L17.2209 7.73631C17.0931 7.02092 16.4709 6.5 15.7442 6.5H15.0501V5.5C15.0501 3.70507 13.5951 2.25 11.8001 2.25ZM13.5501 6.5V5.5C13.5501 4.5335 12.7666 3.75 11.8001 3.75C10.8336 3.75 10.0501 4.5335 10.0501 5.5V6.5H13.5501Z" fill="#7A7A7A"/>
</svg>
