<svg width="24" height="24" viewBox="0 0 24 24" fill="none" xmlns="http://www.w3.org/2000/svg">
<path fill-rule="evenodd" clip-rule="evenodd" d="M6.14839 6.5448C4.81555 7.97387 4 9.8917 4 12C4 14.1083 4.81556 16.0261 6.14839 17.4552C6.89979 15.9273 7.35 14.047 7.35 12C7.35 9.953 6.89979 8.07272 6.14839 6.5448ZM7.14571 18.3594C8.49195 19.3886 10.1746 20 12 20C13.8254 20 15.5081 19.3886 16.8543 18.3594C15.9034 16.5761 15.35 14.3711 15.35 12C15.35 9.62894 15.9034 7.42387 16.8543 5.64055C15.5081 4.61138 13.8254 4 12 4C10.1746 4 8.49195 4.61138 7.14571 5.64055C8.09655 7.42387 8.65 9.62894 8.65 12C8.65 14.3711 8.09655 16.5761 7.14571 18.3594ZM16.65 12C16.65 14.047 17.1002 15.9273 17.8516 17.4552C19.1844 16.0261 20 14.1083 20 12C20 9.8917 19.1844 7.97388 17.8516 6.54481C17.1002 8.07273 16.65 9.953 16.65 12Z" fill="#7A7A7A"/>
</svg>
