<svg width="24" height="24" viewBox="0 0 24 24" fill="none" xmlns="http://www.w3.org/2000/svg">
<path fill-rule="evenodd" clip-rule="evenodd" d="M11.3501 4.02612C9.77608 4.15269 8.33066 4.73486 7.14581 5.64065C8.00917 7.2599 8.5449 9.22688 8.63617 11.3501H11.3501V4.02612ZM11.3501 12.6501H8.63617C8.5449 14.7733 8.00917 16.7403 7.14581 18.3595C8.33066 19.2653 9.77608 19.8475 11.3501 19.9741V12.6501ZM12.6501 19.9741V12.6501H15.364C15.4553 14.7733 15.991 16.7403 16.8544 18.3595C15.6695 19.2653 14.2241 19.8475 12.6501 19.9741ZM12.6501 11.3501V4.02612C14.2241 4.15269 15.6695 4.73486 16.8544 5.64065C15.991 7.2599 15.4553 9.22688 15.364 11.3501H12.6501ZM6.14849 6.5449C4.95399 7.82564 4.17497 9.49894 4.02612 11.3501H7.33487C7.25049 9.55545 6.81963 7.90962 6.14849 6.5449ZM6.14849 17.4553C4.95399 16.1746 4.17497 14.5013 4.02612 12.6501H7.33487C7.25049 14.4447 6.81963 16.0906 6.14849 17.4553ZM17.8517 17.4553C17.1806 16.0906 16.7497 14.4447 16.6653 12.6501H19.9741C19.8252 14.5013 19.0462 16.1746 17.8517 17.4553ZM16.6653 11.3501H19.9741C19.8252 9.49894 19.0462 7.82565 17.8517 6.54491C17.1806 7.90962 16.7497 9.55545 16.6653 11.3501Z" fill="#7A7A7A"/>
</svg>
