<svg width="24" height="24" viewBox="0 0 24 24" fill="none" xmlns="http://www.w3.org/2000/svg">
<path d="M13.2375 14.7C13.7967 14.7 14.25 14.2467 14.25 13.6875C14.25 13.1283 13.7967 12.675 13.2375 12.675H10.65V14.7H13.2375Z" fill="#7A7A7A"/>
<path d="M10.65 9.3H13.2375C13.7967 9.3 14.25 9.75331 14.25 10.3125C14.25 10.8717 13.7967 11.325 13.2375 11.325H10.65V9.3Z" fill="#7A7A7A"/>
<path fill-rule="evenodd" clip-rule="evenodd" d="M3 12C3 7.02944 7.02944 3 12 3C16.9706 3 21 7.02944 21 12C21 16.9706 16.9706 21 12 21C7.02944 21 3 16.9706 3 12ZM7.95 7.95V9.3H9.3V14.7H7.95V16.05H11.325V17.4H12.675V16.05H13.2375C14.5423 16.05 15.6 14.9923 15.6 13.6875C15.6 13.0264 15.3285 12.4288 14.8909 12C15.3285 11.5712 15.6 10.9736 15.6 10.3125C15.6 9.00773 14.5423 7.95 13.2375 7.95H12.675V6.6H11.325V7.95H7.95Z" fill="#7A7A7A"/>
</svg>
