<svg width="24" height="24" viewBox="0 0 24 24" fill="none" xmlns="http://www.w3.org/2000/svg">
<path fill-rule="evenodd" clip-rule="evenodd" d="M5 6C3.89543 6 3 6.89543 3 8V18C3 19.1046 3.89543 20 5 20H19C20.1046 20 21 19.1046 21 18V8C21 6.89543 20.1046 6 19 6H18.75H16.5L14.399 3.66552C14.3041 3.56016 14.1691 3.5 14.0273 3.5H12H9.97268C9.83094 3.5 9.69586 3.56016 9.60103 3.66552L7.5 6H5.25H5ZM12 17C14.2091 17 16 15.2091 16 13C16 10.7909 14.2091 9 12 9C9.79086 9 8 10.7909 8 13C8 15.2091 9.79086 17 12 17Z" fill="#7A7A7A"/>
</svg>
