<svg width="24" height="24" viewBox="0 0 24 24" fill="none" xmlns="http://www.w3.org/2000/svg">
<path d="M2.31182 4C1.86347 4 1.5 4.36347 1.5 4.81182C1.5 5.26018 1.86347 5.62365 2.31182 5.62365H5.01257L6.7213 18.1101C6.77632 18.5121 7.11981 18.8118 7.52563 18.8118H9.65937C9.15075 19.0273 8.79395 19.5312 8.79395 20.1184C8.79395 20.9017 9.42897 21.5367 10.2123 21.5367C10.9956 21.5367 11.6307 20.9017 11.6307 20.1184C11.6307 19.5312 11.2739 19.0273 10.7652 18.8118H16.7513C16.2427 19.0273 15.8859 19.5312 15.8859 20.1184C15.8859 20.9017 16.5209 21.5367 17.3042 21.5367C18.0876 21.5367 18.7226 20.9017 18.7226 20.1184C18.7226 19.5312 18.3658 19.0273 17.8572 18.8118H21.0001C21.4484 18.8118 21.8119 18.4484 21.8119 18C21.8119 17.5516 21.4484 17.1882 21.0001 17.1882H8.23392L8.02355 15.6509L19.2086 14.576C19.6795 14.5308 20.0665 14.185 20.1642 13.7221L21.5199 7.29979C21.662 6.62685 21.1486 5.99379 20.4608 5.99379H6.70201L6.5252 4.70176C6.47017 4.29968 6.12669 4 5.72087 4H2.31182Z" fill="#7A7A7A"/>
</svg>
