<svg width="24" height="24" viewBox="0 0 24 24" fill="none" xmlns="http://www.w3.org/2000/svg">
<path fill-rule="evenodd" clip-rule="evenodd" d="M10.403 4.91302C10.5334 4.66961 10.4417 4.36657 10.1983 4.23617L9.31685 3.76395C9.07344 3.63355 8.7704 3.72516 8.64 3.96858L5.40885 10.0001H2.5C2.22386 10.0001 2 10.2239 2 10.5001V11.5001C2 11.7762 2.22386 12.0001 2.5 12.0001H3.49725L4.90901 20.0001H18.4848L19.8965 12.0001H20.5C20.7761 12.0001 21 11.7762 21 11.5001V10.5001C21 10.2239 20.7761 10.0001 20.5 10.0001H17.9851L14.7539 3.96858C14.6235 3.72516 14.3205 3.63355 14.0771 3.76395L13.1956 4.23617C12.9522 4.36657 12.8606 4.66961 12.991 4.91302L15.7162 10.0001H7.67776L10.403 4.91302Z" fill="#7A7A7A"/>
</svg>
