<svg width="24" height="24" viewBox="0 0 24 24" fill="none" xmlns="http://www.w3.org/2000/svg">
<path fill-rule="evenodd" clip-rule="evenodd" d="M20.4834 12.0309C20.5017 11.7381 20.2622 11.5 19.9688 11.5H12.5313C12.2379 11.5 12 11.2622 12 10.9688V3.53127C12 3.23787 11.7619 2.99829 11.4691 3.01661C9.97461 3.11013 8.52791 3.59714 7.27766 4.43252C5.87984 5.36652 4.79037 6.69404 4.14703 8.24721C3.50368 9.80038 3.33535 11.5094 3.66333 13.1583C3.9913 14.8071 4.80085 16.3217 5.9896 17.5104C7.17834 18.6992 8.6929 19.5087 10.3417 19.8367C11.9906 20.1647 13.6996 19.9963 15.2528 19.353C16.806 18.7096 18.1335 17.6202 19.0675 16.2224C19.9029 14.9721 20.3899 13.5254 20.4834 12.0309ZM14.1245 3.02044C13.832 2.99789 13.5938 3.23787 13.5938 3.53127V9.37502C13.5938 9.66842 13.8316 9.90627 14.125 9.90627L19.9688 9.90627C20.2622 9.90627 20.5021 9.66807 20.4796 9.37554C20.4237 8.65034 20.2535 7.93739 19.9743 7.26336C19.6272 6.42546 19.1185 5.66412 18.4772 5.02281C17.8359 4.38151 17.0746 3.8728 16.2367 3.52572C15.5626 3.24653 14.8497 3.07633 14.1245 3.02044Z" fill="#7A7A7A"/>
</svg>
