<svg width="24" height="24" viewBox="0 0 24 24" fill="none" xmlns="http://www.w3.org/2000/svg">
<path fill-rule="evenodd" clip-rule="evenodd" d="M16 12C18.2091 12 20 10.2091 20 8C20 5.79086 18.2091 4 16 4C13.7909 4 12 5.79086 12 8C12 10.2091 13.7909 12 16 12ZM11 12.5C11 14.433 9.433 16 7.5 16C5.567 16 4 14.433 4 12.5C4 10.567 5.567 9 7.5 9C9.433 9 11 10.567 11 12.5ZM18 17.5C18 18.8807 16.8807 20 15.5 20C14.1193 20 13 18.8807 13 17.5C13 16.1193 14.1193 15 15.5 15C16.8807 15 18 16.1193 18 17.5Z" fill="#7A7A7A"/>
</svg>
