<svg width="24" height="24" viewBox="0 0 24 24" fill="none" xmlns="http://www.w3.org/2000/svg">
<path fill-rule="evenodd" clip-rule="evenodd" d="M12 20.5C16.6944 20.5 20.5 16.6944 20.5 12C20.5 7.30558 16.6944 3.5 12 3.5C7.30558 3.5 3.5 7.30558 3.5 12C3.5 16.6944 7.30558 20.5 12 20.5ZM8.54688 12C8.54688 10.0929 10.0929 8.54688 12 8.54688C13.9071 8.54688 15.4531 10.0929 15.4531 12C15.4531 13.9071 13.9071 15.4531 12 15.4531C10.0929 15.4531 8.54688 13.9071 8.54688 12ZM12 6.95312C9.21269 6.95312 6.95312 9.21269 6.95312 12C6.95312 14.7873 9.21269 17.0469 12 17.0469C14.7873 17.0469 17.0469 14.7873 17.0469 12C17.0469 9.21269 14.7873 6.95312 12 6.95312Z" fill="#7A7A7A"/>
</svg>
