<svg width="24" height="24" viewBox="0 0 24 24" fill="none" xmlns="http://www.w3.org/2000/svg">
<path fill-rule="evenodd" clip-rule="evenodd" d="M5.47826 17.9999C3.55727 17.9999 2 16.4426 2 14.5216C2 12.6007 3.55727 11.0434 5.47826 11.0434C5.47826 8.64215 7.42485 6.69556 9.82609 6.69556C11.9366 6.69556 13.6959 8.19937 14.091 10.1939C15.6061 10.3684 16.7826 11.6554 16.7826 13.2173C16.7826 13.3829 16.7694 13.5454 16.7439 13.7038C16.8964 13.6699 17.0548 13.6521 17.2174 13.6521C18.418 13.6521 19.3913 14.6254 19.3913 15.826C19.3913 17.0266 18.418 17.9999 17.2174 17.9999H5.47826ZM20.4999 9.99994C20.4999 11.4865 19.4187 12.7205 17.9998 12.9585C17.9798 10.9901 16.538 9.36225 14.6525 9.05289C15.049 7.86012 16.174 6.99994 17.4999 6.99994C19.1568 6.99994 20.4999 8.34308 20.4999 9.99994Z" fill="#7A7A7A"/>
</svg>
