<svg width="24" height="24" viewBox="0 0 24 24" fill="none" xmlns="http://www.w3.org/2000/svg">
<path fill-rule="evenodd" clip-rule="evenodd" d="M6 4C4.89543 4 4 4.89543 4 6V18C4 19.1046 4.89543 20 6 20H18C19.1046 20 20 19.1046 20 18V6C20 4.89543 19.1046 4 18 4H6ZM7.41603 12.376C7.07138 12.1462 6.60573 12.2393 6.37596 12.584C6.1462 12.9286 6.23933 13.3943 6.58397 13.624L8.64792 15L6.58397 16.376C6.23933 16.6057 6.1462 17.0714 6.37596 17.416C6.60573 17.7607 7.07138 17.8538 7.41603 17.624L10.416 15.624C10.6247 15.4849 10.75 15.2508 10.75 15C10.75 14.7492 10.6247 14.5151 10.416 14.376L7.41603 12.376Z" fill="#7A7A7A"/>
</svg>
