<svg width="24" height="24" viewBox="0 0 24 24" fill="none" xmlns="http://www.w3.org/2000/svg">
<path d="M13.7631 5.7535C9.73094 6.2179 6.6 9.64327 6.6 13.7999C6.6 14.5738 6.70854 15.3224 6.91124 16.0313C4.61634 15.0902 3 12.8338 3 10.1999C3 6.72051 5.82061 3.8999 9.3 3.8999C11.044 3.8999 12.6224 4.60851 13.7631 5.7535Z" fill="#7A7A7A"/>
<path d="M21 13.7999C21 17.2793 18.1794 20.0999 14.7 20.0999C11.2206 20.0999 8.4 17.2793 8.4 13.7999C8.4 10.3205 11.2206 7.4999 14.7 7.4999C18.1794 7.4999 21 10.3205 21 13.7999Z" fill="#7A7A7A"/>
</svg>
