<svg width="24" height="24" viewBox="0 0 24 24" fill="none" xmlns="http://www.w3.org/2000/svg">
<path fill-rule="evenodd" clip-rule="evenodd" d="M4.0001 5C4.0001 4.44771 4.44781 4 5.0001 4H19.0001C19.5524 4 20.0001 4.44772 20.0001 5V15C20.0001 15.5523 19.5524 16 19.0001 16H5.0001C4.44781 16 4.0001 15.5523 4.0001 15V5ZM9.8501 6C9.8501 5.64102 10.1411 5.35 10.5001 5.35H13.5001C13.8591 5.35 14.1501 5.64102 14.1501 6C14.1501 6.35898 13.8591 6.65 13.5001 6.65H10.5001C10.1411 6.65 9.8501 6.35898 9.8501 6ZM4.0001 17.725C3.57208 17.725 3.2251 18.072 3.2251 18.5C3.2251 18.928 3.57208 19.275 4.0001 19.275H20.0001C20.4281 19.275 20.7751 18.928 20.7751 18.5C20.7751 18.072 20.4281 17.725 20.0001 17.725H4.0001Z" fill="#7A7A7A"/>
</svg>
