<svg width="24" height="24" viewBox="0 0 24 24" fill="none" xmlns="http://www.w3.org/2000/svg">
<path fill-rule="evenodd" clip-rule="evenodd" d="M17.5 6H6.5L6.5 14H17.5V6ZM6.5 4C5.39543 4 4.5 4.89543 4.5 6V14C4.5 15.1046 5.39543 16 6.5 16H17.5C18.6046 16 19.5 15.1046 19.5 14V6C19.5 4.89543 18.6046 4 17.5 4H6.5ZM10.9196 16.9019C10.9664 16.6682 11.1716 16.5 11.4099 16.5H12.5901C12.8284 16.5 13.0336 16.6682 13.0804 16.9019L13.3648 18.3241C13.9827 18.6467 14.4112 19.1822 14.4877 19.8005C14.5013 19.9101 14.4105 20 14.3 20H9.7C9.58954 20 9.49871 19.9101 9.51229 19.8005C9.58884 19.1822 10.0173 18.6467 10.6352 18.3241L10.9196 16.9019Z" fill="#7A7A7A"/>
</svg>
