<svg width="24" height="24" viewBox="0 0 24 24" fill="none" xmlns="http://www.w3.org/2000/svg">
<path fill-rule="evenodd" clip-rule="evenodd" d="M12 20C16.4183 20 20 16.4183 20 12C20 7.58172 16.4183 4 12 4C7.58172 4 4 7.58172 4 12C4 16.4183 7.58172 20 12 20ZM9 12C9.55228 12 10 11.3284 10 10.5C10 9.67157 9.55228 9 9 9C8.44771 9 8 9.67157 8 10.5C8 11.3284 8.44771 12 9 12ZM16 10.5C16 11.3284 15.5523 12 15 12C14.4477 12 14 11.3284 14 10.5C14 9.67157 14.4477 9 15 9C15.5523 9 16 9.67157 16 10.5ZM15.1973 14.7236C15.597 14.6146 15.8326 14.2023 15.7236 13.8027C15.6146 13.403 15.2023 13.1674 14.8027 13.2764L9.30266 14.7764C8.90304 14.8854 8.66744 15.2977 8.77643 15.6973C8.88541 16.097 9.29772 16.3326 9.69734 16.2236L15.1973 14.7236Z" fill="#7A7A7A"/>
</svg>
