<svg width="24" height="24" viewBox="0 0 24 24" fill="none" xmlns="http://www.w3.org/2000/svg">
<path fill-rule="evenodd" clip-rule="evenodd" d="M11.5527 3.10557C11.8342 2.96481 12.1656 2.96481 12.4471 3.10557L19.5822 6.67314C19.921 6.84253 20.135 7.1888 20.135 7.56757V17.3784C20.135 17.7757 19.8998 18.1353 19.5358 18.2945L12.4007 21.4162C12.1452 21.5279 11.8546 21.5279 11.5991 21.4162L4.46393 18.2945C4.09994 18.1353 3.86475 17.7757 3.86475 17.3784V7.56757C3.86475 7.1888 4.07875 6.84253 4.41753 6.67314L11.5527 3.10557ZM5.86475 9.1856V16.7244L10.9999 18.971V11.7532L5.86475 9.1856ZM12.9999 11.7532V18.971L18.135 16.7244V9.1856L12.9999 11.7532ZM16.8989 7.56757L11.9999 10.0171L7.10081 7.56757L11.9999 5.11803L16.8989 7.56757Z" fill="#7A7A7A"/>
</svg>
