<svg width="24" height="24" viewBox="0 0 24 24" fill="none" xmlns="http://www.w3.org/2000/svg">
<path fill-rule="evenodd" clip-rule="evenodd" d="M11.5294 10.5882C15.6878 10.5882 19.0588 9.11341 19.0588 7.29412C19.0588 5.47483 15.6878 4 11.5294 4C7.37103 4 4 5.47483 4 7.29412C4 9.11341 7.37103 10.5882 11.5294 10.5882ZM18.3342 10.5882C17.1258 11.7012 14.533 12.4706 11.5294 12.4706C8.52583 12.4706 5.93301 11.7012 4.72458 10.5882C4.25997 11.0161 4 11.4948 4 12C4 13.8193 7.37103 15.2941 11.5294 15.2941C15.6878 15.2941 19.0588 13.8193 19.0588 12C19.0588 11.4948 18.7989 11.0161 18.3342 10.5882ZM18.3342 15.2941C17.1258 16.407 14.533 17.1765 11.5294 17.1765C8.52583 17.1765 5.93301 16.407 4.72458 15.2941C4.25997 15.722 4 16.2007 4 16.7059C4 18.5252 7.37103 20 11.5294 20C15.6878 20 19.0588 18.5252 19.0588 16.7059C19.0588 16.2007 18.7989 15.722 18.3342 15.2941Z" fill="#7A7A7A"/>
</svg>
