<svg width="24" height="24" viewBox="0 0 24 24" fill="none" xmlns="http://www.w3.org/2000/svg">
<path fill-rule="evenodd" clip-rule="evenodd" d="M3 4.71429C3 4.04365 3.54365 3.5 4.21429 3.5H18.7857C19.4563 3.5 20 4.04365 20 4.71429V7.14286C20 7.81349 19.4563 8.35714 18.7857 8.35714H4.21429C3.54365 8.35714 3 7.81349 3 7.14286V4.71429ZM4.42848 5.92852C4.42848 6.48083 4.87622 6.92857 5.42854 6.92857C5.98085 6.92857 6.42859 6.48083 6.42859 5.92852C6.42859 5.37621 5.98085 4.92847 5.42854 4.92847C4.87622 4.92847 4.42848 5.37621 4.42848 5.92852ZM4.21429 9.57153C3.54365 9.57153 3 10.1152 3 10.7858V13.2144C3 13.885 3.54365 14.4287 4.21429 14.4287H18.7857C19.4563 14.4287 20 13.885 20 13.2144V10.7858C20 10.1152 19.4563 9.57153 18.7857 9.57153H4.21429ZM5.42854 13.0001C4.87622 13.0001 4.42848 12.5524 4.42848 12.0001C4.42848 11.4477 4.87622 11 5.42854 11C5.98085 11 6.42859 11.4477 6.42859 12.0001C6.42859 12.5524 5.98085 13.0001 5.42854 13.0001ZM4.21429 15.5C3.54365 15.5 3 16.0437 3 16.7143V19.1429C3 19.8135 3.54365 20.3571 4.21429 20.3571H18.7857C19.4563 20.3571 20 19.8135 20 19.1429V16.7143C20 16.0437 19.4563 15.5 18.7857 15.5H4.21429ZM5.42854 18.9286C4.87622 18.9286 4.42848 18.4808 4.42848 17.9285C4.42848 17.3762 4.87622 16.9285 5.42854 16.9285C5.98085 16.9285 6.42859 17.3762 6.42859 17.9285C6.42859 18.4808 5.98085 18.9286 5.42854 18.9286Z" fill="#7A7A7A"/>
</svg>
