<svg width="24" height="24" viewBox="0 0 24 24" fill="none" xmlns="http://www.w3.org/2000/svg">
<path fill-rule="evenodd" clip-rule="evenodd" d="M12 2.5C12 2.22386 11.7761 2 11.5 2H10.5C10.2239 2 10 2.22386 10 2.5V5H6C5.44772 5 5 5.44772 5 6V12C5 12.5523 5.44771 13 6 13H10V21C10 21.2761 10.2239 21.5 10.5 21.5H11.5C11.7761 21.5 12 21.2761 12 21V13H15.9717C16.3184 13 16.6403 12.8204 16.8225 12.5255L18.6754 9.52549C18.8744 9.20341 18.8744 8.79659 18.6754 8.47451L16.8225 5.47451C16.6403 5.17955 16.3184 5 15.9717 5H12V2.5Z" fill="#7A7A7A"/>
</svg>
