<svg width="24" height="24" viewBox="0 0 24 24" fill="none" xmlns="http://www.w3.org/2000/svg">
<path fill-rule="evenodd" clip-rule="evenodd" d="M13.9999 2.5C13.9999 2.22386 13.7761 2 13.4999 2H12.4999C12.2238 2 11.9999 2.22386 11.9999 2.5V5H8.02823C7.68156 5 7.35961 5.17955 7.17744 5.47451L5.3245 8.47451C5.12556 8.79659 5.12556 9.20341 5.32449 9.52549L7.17744 12.5255C7.35961 12.8204 7.68156 13 8.02823 13H11.9999V21C11.9999 21.2761 12.2238 21.5 12.4999 21.5H13.4999C13.7761 21.5 13.9999 21.2761 13.9999 21V13H17.9999C18.5522 13 18.9999 12.5523 18.9999 12V6C18.9999 5.44772 18.5522 5 17.9999 5H13.9999V2.5Z" fill="#7A7A7A"/>
</svg>
