<svg width="24" height="24" viewBox="0 0 24 24" fill="none" xmlns="http://www.w3.org/2000/svg">
<path fill-rule="evenodd" clip-rule="evenodd" d="M13.0001 2.5C13.0001 2.22386 12.7762 2 12.5001 2H11.5001C11.2239 2 11.0001 2.22386 11.0001 2.5V4H6.88836C6.62109 4 6.36495 4.10699 6.17708 4.29709L4.69473 5.79709C4.30977 6.18664 4.30977 6.81337 4.69473 7.20291L6.17708 8.70291C6.36495 8.89301 6.62109 9 6.88836 9H11.0001V11H6.88836C6.62109 11 6.36495 11.107 6.17708 11.2971L4.69473 12.7971C4.30977 13.1866 4.30977 13.8134 4.69473 14.2029L6.17708 15.7029C6.36495 15.893 6.62109 16 6.88836 16H11.0001V21C11.0001 21.2761 11.2239 21.5 11.5001 21.5H12.5001C12.7762 21.5 13.0001 21.2761 13.0001 21V16H17.0001C17.5524 16 18.0001 15.5523 18.0001 15V12C18.0001 11.4477 17.5524 11 17.0001 11H13.0001V9H17.0001C17.5524 9 18.0001 8.55228 18.0001 8V5C18.0001 4.44772 17.5524 4 17.0001 4H13.0001V2.5Z" fill="#7A7A7A"/>
</svg>
