<svg width="24" height="24" viewBox="0 0 24 24" fill="none" xmlns="http://www.w3.org/2000/svg">
<path fill-rule="evenodd" clip-rule="evenodd" d="M13 2.5C13 2.22386 12.7761 2 12.5 2H11.5C11.2239 2 11 2.22386 11 2.5V4H7C6.44772 4 6 4.44772 6 5V8C6 8.55228 6.44771 9 7 9H11V11H7C6.44772 11 6 11.4477 6 12V15C6 15.5523 6.44771 16 7 16H11V21C11 21.2761 11.2239 21.5 11.5 21.5H12.5C12.7761 21.5 13 21.2761 13 21V16H17.1117C17.379 16 17.6351 15.893 17.823 15.7029L19.3054 14.2029C19.6903 13.8134 19.6903 13.1866 19.3054 12.7971L17.823 11.2971C17.6351 11.107 17.379 11 17.1117 11H13V9H17.1117C17.379 9 17.6351 8.89301 17.823 8.70291L19.3054 7.20291C19.6903 6.81337 19.6903 6.18664 19.3054 5.79709L17.823 4.29709C17.6351 4.10699 17.379 4 17.1117 4H13V2.5Z" fill="#7A7A7A"/>
</svg>
