<svg width="24" height="24" viewBox="0 0 24 24" fill="none" xmlns="http://www.w3.org/2000/svg">
<path d="M18.9225 5.64663C17.6558 5.05614 16.2844 4.62755 14.8557 4.37993C14.8432 4.37953 14.8308 4.38188 14.8192 4.38681C14.8077 4.39175 14.7974 4.39915 14.7891 4.4085C14.6176 4.72279 14.4176 5.13233 14.2843 5.44662C12.769 5.21804 11.228 5.21804 9.71275 5.44662C9.57941 5.1228 9.37941 4.72279 9.19845 4.4085C9.18893 4.38945 9.16035 4.37993 9.13178 4.37993C7.70317 4.62755 6.34123 5.05614 5.065 5.64663C5.05548 5.64663 5.04595 5.65615 5.03643 5.66568C2.44588 9.54197 1.73158 13.3135 2.08397 17.0469C2.08397 17.066 2.09349 17.085 2.11254 17.0946C3.82687 18.3517 5.47454 19.1137 7.10315 19.6184C7.13173 19.628 7.1603 19.6184 7.16982 19.5994C7.55078 19.0756 7.89365 18.5232 8.1889 17.9422C8.20795 17.9041 8.1889 17.866 8.1508 17.8565C7.60793 17.647 7.09363 17.3993 6.58885 17.1136C6.55076 17.0946 6.55076 17.0374 6.57933 17.0088C6.68409 16.9327 6.78886 16.8469 6.89362 16.7707C6.91267 16.7517 6.94124 16.7517 6.96029 16.7612C10.2366 18.2565 13.77 18.2565 17.0082 16.7612C17.0272 16.7517 17.0558 16.7517 17.0749 16.7707C17.1796 16.8565 17.2844 16.9327 17.3891 17.0184C17.4272 17.0469 17.4272 17.1041 17.3796 17.1231C16.8844 17.4184 16.3606 17.6565 15.8177 17.866C15.7796 17.8755 15.7701 17.9232 15.7796 17.9517C16.0844 18.5327 16.4272 19.0851 16.7987 19.6089C16.8272 19.6184 16.8558 19.628 16.8844 19.6184C18.5225 19.1137 20.1702 18.3517 21.8845 17.0946C21.9036 17.085 21.9131 17.066 21.9131 17.0469C22.3321 12.7325 21.2178 8.98958 18.9606 5.66568C18.9511 5.65615 18.9416 5.64663 18.9225 5.64663ZM8.68415 14.7707C7.70317 14.7707 6.8841 13.8659 6.8841 12.7516C6.8841 11.6373 7.68412 10.7325 8.68415 10.7325C9.6937 10.7325 10.4937 11.6468 10.4842 12.7516C10.4842 13.8659 9.68418 14.7707 8.68415 14.7707ZM15.3224 14.7707C14.3414 14.7707 13.5224 13.8659 13.5224 12.7516C13.5224 11.6373 14.3224 10.7325 15.3224 10.7325C16.332 10.7325 17.132 11.6468 17.1225 12.7516C17.1225 13.8659 16.332 14.7707 15.3224 14.7707Z" fill="#7A7A7A"/>
</svg>
