<svg width="24" height="24" viewBox="0 0 24 24" fill="none" xmlns="http://www.w3.org/2000/svg">
<path fill-rule="evenodd" clip-rule="evenodd" d="M12.5 18C18.776 18 21.3067 13.1249 21.8721 11.8187C21.9613 11.6126 21.9613 11.3874 21.8721 11.1813C21.3067 9.87514 18.776 5 12.5 5C6.22412 5 3.69336 9.87514 3.12794 11.1813C3.03873 11.3874 3.03873 11.6126 3.12794 11.8187C3.69336 13.1249 6.22412 18 12.5 18ZM10.6154 11.5C10.6154 10.4592 11.4592 9.61539 12.5 9.61539C13.5409 9.61539 14.3847 10.4592 14.3847 11.5C14.3847 12.5408 13.5409 13.3846 12.5 13.3846C11.4592 13.3846 10.6154 12.5408 10.6154 11.5ZM12.5 8C10.567 8 9.00004 9.567 9.00004 11.5C9.00004 13.433 10.567 15 12.5 15C14.433 15 16 13.433 16 11.5C16 9.567 14.433 8 12.5 8Z" fill="#7A7A7A"/>
</svg>
