<svg width="24" height="24" viewBox="0 0 24 24" fill="none" xmlns="http://www.w3.org/2000/svg">
<path d="M12 21.9999C16.1173 21.9999 19.4999 18.737 19.4999 14.549C19.4999 13.5208 19.4476 12.4187 18.8778 10.7057C18.6152 9.9166 18.4492 9.44409 18.2877 9.06052C18.1005 8.61606 17.3912 8.73363 17.1916 9.17263C16.677 10.3039 15.8631 10.8434 15.6055 11.0412C15.6055 10.7615 14.7722 7.66789 13.5088 5.81689C12.5685 4.43936 11.3715 3.42102 10.4165 2.65694C10.0873 2.39353 9.57809 2.63228 9.53747 3.05196C9.40249 4.44661 9.03071 6.06183 8.5427 6.97964C7.92445 8.14239 7.80835 8.18474 7.0361 9.05004C6.2639 9.91534 5.90945 10.1826 5.2637 11.2325C4.61798 12.2824 4.5 13.6808 4.5 14.709C4.5 18.897 7.88265 21.9999 12 21.9999Z" fill="#7A7A7A"/>
</svg>
