<svg width="24" height="24" viewBox="0 0 24 24" fill="none" xmlns="http://www.w3.org/2000/svg">
<path fill-rule="evenodd" clip-rule="evenodd" d="M5.5 4C5.22386 4 5 4.22386 5 4.5V20.5C5 20.7761 5.22386 21 5.5 21H6.5C6.77614 21 7 20.7761 7 20.5V4.5C7 4.22386 6.77614 4 6.5 4H5.5ZM8.5 5C8.22386 5 8 5.22386 8 5.5V14.5C8 14.7761 8.22386 15 8.5 15H18.2615C18.6152 15 18.8571 14.6427 18.7257 14.3143L17.0743 10.1857C17.0266 10.0665 17.0266 9.93351 17.0743 9.8143L18.7257 5.6857C18.8571 5.35726 18.6152 5 18.2615 5H8.5Z" fill="#7A7A7A"/>
</svg>
