<svg width="24" height="24" viewBox="0 0 24 24" fill="none" xmlns="http://www.w3.org/2000/svg">
<path fill-rule="evenodd" clip-rule="evenodd" d="M9.0022 6.02692C8.88304 6.18013 8.68274 6.24556 8.49612 6.19224L5.95486 5.46616C5.69393 5.39161 5.42466 5.54976 5.36981 5.81553C5.22966 6.49461 5.00011 7.74612 5.00011 8.65854C5.00011 12.9402 8.27648 15.2946 11.1857 15.7217C11.1839 15.7451 11.183 15.7688 11.183 15.7927V21.5C11.183 22.0254 11.6089 22.4513 12.1343 22.4513C12.6596 22.4513 13.0855 22.0254 13.0855 21.5V15.7927C13.0855 15.7688 13.0846 15.7451 13.0829 15.7217C15.9921 15.2946 19.2684 12.9402 19.2684 8.65854C19.2684 7.74612 19.0389 6.49461 18.8987 5.81553C18.8439 5.54976 18.5746 5.39161 18.3137 5.46616L15.7724 6.19224C15.5858 6.24556 15.3855 6.18013 15.2663 6.02692L12.5097 2.48269C12.3193 2.23787 11.9492 2.23787 11.7588 2.48269L9.0022 6.02692ZM5.39584 17.1015C5.06801 16.8829 4.62507 16.9715 4.40651 17.2993C4.18796 17.6272 4.27655 18.0701 4.60438 18.2887L8.88487 21.1423C9.2127 21.3609 9.65564 21.2723 9.8742 20.9445C10.0928 20.6166 10.0042 20.1737 9.67633 19.9551L5.39584 17.1015ZM19.3483 17.1015C19.6761 16.8829 20.119 16.9715 20.3376 17.2993C20.5562 17.6272 20.4676 18.0701 20.1397 18.2887L15.8593 21.1423C15.5314 21.3609 15.0885 21.2723 14.8699 20.9445C14.6514 20.6166 14.74 20.1737 15.0678 19.9551L19.3483 17.1015Z" fill="#7A7A7A"/>
</svg>
