<svg width="24" height="24" viewBox="0 0 24 24" fill="none" xmlns="http://www.w3.org/2000/svg">
<path fill-rule="evenodd" clip-rule="evenodd" d="M4 4V8H21V6C21 5.44772 20.5523 5 20 5H12L9.77391 3.21913C9.5966 3.07728 9.37629 3 9.14922 3H5C4.44772 3 4 3.44772 4 4ZM4 9.5H21V18C21 19.1046 20.1046 20 19 20H6C4.89543 20 4 19.1046 4 18V9.5ZM13.4036 13.3882C14.0929 12.719 15.2387 12.9466 15.62 13.8283L15.6748 13.9551L15.7208 13.8532C16.1162 12.9773 17.2698 12.7754 17.9392 13.4648C18.5677 14.1123 18.5524 15.1468 17.9049 15.7754L15.7778 17.8403C15.6788 17.9364 15.5207 17.934 15.4246 17.835L13.369 15.7176C12.7353 15.0648 12.7508 14.0219 13.4036 13.3882Z" fill="#7A7A7A"/>
</svg>
