<svg width="24" height="24" viewBox="0 0 24 24" fill="none" xmlns="http://www.w3.org/2000/svg">
<path fill-rule="evenodd" clip-rule="evenodd" d="M4 4V8H21V6C21 5.44772 20.5523 5 20 5H12L9.77391 3.21913C9.5966 3.07728 9.37629 3 9.14922 3H5C4.44772 3 4 3.44772 4 4ZM4 9.5H21V18C21 19.1046 20.1046 20 19 20H6C4.89543 20 4 19.1046 4 18V9.5ZM16.25 12.25C16.6642 12.25 17 12.5858 17 13V14.5H18.5C18.9142 14.5 19.25 14.8358 19.25 15.25C19.25 15.6642 18.9142 16 18.5 16H17V17.5C17 17.9142 16.6642 18.25 16.25 18.25C15.8358 18.25 15.5 17.9142 15.5 17.5V16H14C13.5858 16 13.25 15.6642 13.25 15.25C13.25 14.8358 13.5858 14.5 14 14.5H15.5V13C15.5 12.5858 15.8358 12.25 16.25 12.25Z" fill="#7A7A7A"/>
</svg>
