<svg width="24" height="24" viewBox="0 0 24 24" fill="none" xmlns="http://www.w3.org/2000/svg">
<path fill-rule="evenodd" clip-rule="evenodd" d="M5.49994 8H7.49994L5.24695 4.62051C5.09263 4.38904 4.83284 4.25 4.55464 4.25C3.89009 4.25 3.4937 4.99065 3.86233 5.54359L5.49994 8ZM10.9999 8H8.99994L7.36233 5.54359C6.9937 4.99065 7.39009 4.25 8.05464 4.25C8.33284 4.25 8.59263 4.38904 8.74695 4.62051L10.9999 8ZM4.99994 9C4.44766 9 3.99994 9.44772 3.99994 10V11H19.9999V10C19.9999 9.44772 19.5522 9 18.9999 9H4.99994ZM19.9999 12C19.9999 16.4183 16.4182 20 11.9999 20C7.58166 20 3.99994 16.4183 3.99994 12H19.9999Z" fill="#7A7A7A"/>
</svg>
