<svg width="24" height="24" viewBox="0 0 24 24" fill="none" xmlns="http://www.w3.org/2000/svg">
<path d="M9.58932 2.70028L8.99903 2.39038L8.37924 3.57095L8.96952 3.88085C9.73451 4.28247 10.2645 4.75894 10.6318 5.32521C10.833 5.63542 10.9931 5.98435 11.1141 6.38095C8.77917 5.70316 6.95485 6.17165 5.71898 7.45508C4.35341 8.87322 3.87746 11.1228 4.02575 13.2758C4.17485 15.4405 4.96452 17.6857 6.34928 19.1688C7.04821 19.9173 7.91163 20.4839 8.92779 20.723C9.87329 20.9455 10.9062 20.8738 11.9989 20.4603C13.092 20.8738 14.1251 20.9455 15.0708 20.723C16.0871 20.4839 16.9508 19.9174 17.6499 19.1689C19.035 17.6858 19.8249 15.4406 19.974 13.2758C20.1224 11.1228 19.6463 8.87318 18.2804 7.45504C16.981 6.1059 15.0312 5.65731 12.5214 6.49419C12.366 5.79825 12.118 5.16612 11.7505 4.59958C11.2394 3.81176 10.5231 3.19053 9.58932 2.70028Z" fill="#7A7A7A"/>
</svg>
