<svg width="24" height="24" viewBox="0 0 24 24" fill="none" xmlns="http://www.w3.org/2000/svg">
<path fill-rule="evenodd" clip-rule="evenodd" d="M7.10585 2.8667C5.32555 2.8667 3.88232 4.30992 3.88232 6.09022V15.7608C3.88232 17.5411 5.32555 18.9843 7.10585 18.9843H10.8331C11.1483 18.9843 11.4039 18.7287 11.4039 18.4135V3.43753C11.4039 3.12227 11.1483 2.8667 10.8331 2.8667H7.10585ZM7.2133 6.54855C6.72464 6.54855 6.32851 6.94468 6.32851 7.43334C6.32851 7.92199 6.72464 8.31813 7.2133 8.31813H8.35496C8.84362 8.31813 9.23976 7.92199 9.23976 7.43334C9.23976 6.94468 8.84362 6.54855 8.35496 6.54855H7.2133ZM8.9258 14.2833C8.9258 14.9138 8.41466 15.425 7.78413 15.425C7.15361 15.425 6.64246 14.9138 6.64246 14.2833C6.64246 13.6528 7.15361 13.1417 7.78413 13.1417C8.41466 13.1417 8.9258 13.6528 8.9258 14.2833ZM16.7764 5.0157C18.5567 5.0157 20 6.45892 20 8.23922V17.9098C20 19.6901 18.5567 21.1333 16.7764 21.1333H13.0492C12.734 21.1333 12.4784 20.8777 12.4784 20.5625V5.58653C12.4784 5.27127 12.734 5.0157 13.0492 5.0157H16.7764ZM16.0041 14.7399C16.3824 14.7399 16.6891 15.0466 16.6891 15.4249V15.8816H17.1458C17.5241 15.8816 17.8308 16.1883 17.8308 16.5666C17.8308 16.9449 17.5241 17.2516 17.1458 17.2516H16.6891V17.7082C16.6891 18.0866 16.3824 18.3932 16.0041 18.3932C15.6258 18.3932 15.3191 18.0866 15.3191 17.7082V17.2516H14.8625C14.4841 17.2516 14.1775 16.9449 14.1775 16.5666C14.1775 16.1883 14.4841 15.8816 14.8625 15.8816H15.3191V15.4249C15.3191 15.0466 15.6258 14.7399 16.0041 14.7399ZM17.1458 8.57504C17.1458 9.20556 16.6347 9.7167 16.0041 9.7167C15.3736 9.7167 14.8625 9.20556 14.8625 8.57504C14.8625 7.94452 15.3736 7.43337 16.0041 7.43337C16.6347 7.43337 17.1458 7.94452 17.1458 8.57504Z" fill="#7A7A7A"/>
</svg>
