<svg width="24" height="24" viewBox="0 0 24 24" fill="none" xmlns="http://www.w3.org/2000/svg">
<path d="M6.34211 5.02632C6.34211 3.63107 7.47317 2.5 8.86842 2.5C10.1382 2.5 11.2733 3.07646 12.0263 3.98196C12.7794 3.07646 13.9145 2.5 15.1842 2.5C16.5795 2.5 17.7105 3.63107 17.7105 5.02632C17.7105 5.8402 17.4737 6.59876 17.0652 7.23684H18.6579C19.7043 7.23684 20.5526 8.08514 20.5526 9.13158C20.5526 10.178 19.7043 11.0263 18.6579 11.0263H12.9737V7.23684H13.6053C14.8261 7.23684 15.8158 6.24716 15.8158 5.02632C15.8158 4.6775 15.533 4.39474 15.1842 4.39474C13.9634 4.39474 12.9737 5.38442 12.9737 6.60526V7.23684H11.0789V6.60526C11.0789 5.38442 10.0893 4.39474 8.86842 4.39474C8.51961 4.39474 8.23684 4.6775 8.23684 5.02632C8.23684 6.24716 9.22653 7.23684 10.4474 7.23684H11.0789V11.0263H5.39474C4.3483 11.0263 3.5 10.178 3.5 9.13158C3.5 8.08514 4.3483 7.23684 5.39474 7.23684H6.98746C6.57894 6.59876 6.34211 5.8402 6.34211 5.02632Z" fill="#7A7A7A"/>
<path d="M12.9737 12.9211H19.6053V17.6579C19.6053 19.2275 18.3328 20.5 16.7632 20.5H12.9737V12.9211Z" fill="#7A7A7A"/>
<path d="M11.0789 12.9211H4.44737V17.6579C4.44737 19.2275 5.71982 20.5 7.28947 20.5H11.0789V12.9211Z" fill="#7A7A7A"/>
</svg>
