<svg width="24" height="24" viewBox="0 0 24 24" fill="none" xmlns="http://www.w3.org/2000/svg">
<path d="M19.8444 10.3502H19.2H12V13.5502H16.5212C15.8616 15.413 14.0892 16.7502 12 16.7502C9.3492 16.7502 7.2 14.601 7.2 11.9502C7.2 9.2994 9.3492 7.1502 12 7.1502C13.2236 7.1502 14.3368 7.6118 15.1844 8.3658L17.4472 6.103C16.0184 4.7714 14.1072 3.9502 12 3.9502C7.582 3.9502 4 7.5322 4 11.9502C4 16.3682 7.582 19.9502 12 19.9502C16.418 19.9502 20 16.3682 20 11.9502C20 11.4138 19.9448 10.857 19.8444 10.3502Z" fill="#7A7A7A"/>
</svg>
