<svg width="24" height="24" viewBox="0 0 24 24" fill="none" xmlns="http://www.w3.org/2000/svg">
<path d="M4.37002 7.63683C4.37002 5.68597 5.9515 4.10449 7.90236 4.10449C9.85322 4.10449 11.4347 5.68597 11.4347 7.63683C11.4347 9.58768 9.85322 11.1692 7.90236 11.1692C5.9515 11.1692 4.37002 9.58768 4.37002 7.63683Z" fill="#7A7A7A"/>
<path d="M7.83928 12.0522C10.9428 12.0522 13.8467 14.6067 14.1769 19.2911C14.1898 19.4744 14.126 19.6548 14.0008 19.7893C13.8755 19.9237 13.7 20 13.5163 20H2.16231C1.97857 20 1.80308 19.9237 1.6778 19.7893C1.55253 19.6548 1.48872 19.4744 1.50164 19.2911C1.83185 14.6067 4.73575 12.0522 7.83928 12.0522Z" fill="#7A7A7A"/>
<path d="M15.8501 4.10449C13.8993 4.10449 12.3178 5.68597 12.3178 7.63683C12.3178 9.58768 13.8993 11.1692 15.8501 11.1692C17.801 11.1692 19.3825 9.58768 19.3825 7.63683C19.3825 5.68597 17.801 4.10449 15.8501 4.10449Z" fill="#7A7A7A"/>
<path d="M15.4984 19.198C15.5178 19.4729 15.4796 19.7456 15.3897 20H21.5877C21.7714 20 21.9469 19.9237 22.0722 19.7893C22.1975 19.6548 22.2613 19.4744 22.2484 19.2911C21.9181 14.6067 19.0142 12.0522 15.9107 12.0522C14.8611 12.0522 13.8344 12.3444 12.9223 12.9123C14.3466 14.3804 15.3105 16.5327 15.4984 19.198Z" fill="#7A7A7A"/>
</svg>
