<svg width="24" height="24" viewBox="0 0 24 24" fill="none" xmlns="http://www.w3.org/2000/svg">
<path fill-rule="evenodd" clip-rule="evenodd" d="M4.09792 9.83955C4.70025 6.81385 8.0088 4.5 12 4.5C15.9912 4.5 19.2998 6.81385 19.9021 9.83955C20.0099 10.3812 19.5523 10.8333 19 10.8333H5C4.44772 10.8333 3.99009 10.3812 4.09792 9.83955ZM19 14.8333H15.6667L14.3738 16.1262C13.9832 16.5168 13.3501 16.5168 12.9596 16.1262L11.6667 14.8333H5C4.44772 14.8333 4 14.3856 4 13.8333V13.1667C4 12.6144 4.44772 12.1667 5 12.1667H19C19.5523 12.1667 20 12.6144 20 13.1667V13.8333C20 14.3856 19.5523 14.8333 19 14.8333ZM4.5 16.5H11L13.0082 18.2571C13.3852 18.587 13.9481 18.587 14.3252 18.2571L16.3333 16.5H19.5C19.7761 16.5 20 16.7239 20 17V18.5C20 19.0523 19.5523 19.5 19 19.5H5C4.44772 19.5 4 19.0523 4 18.5V17C4 16.7239 4.22386 16.5 4.5 16.5Z" fill="#7A7A7A"/>
</svg>
