<svg width="24" height="24" viewBox="0 0 24 24" fill="none" xmlns="http://www.w3.org/2000/svg">
<path fill-rule="evenodd" clip-rule="evenodd" d="M12 20C16.4183 20 20 16.4183 20 12C20 7.58172 16.4183 4 12 4C7.58172 4 4 7.58172 4 12C4 16.4183 7.58172 20 12 20ZM15 14C15 15.6569 13.6569 17 12 17C10.3431 17 9 15.6569 9 14C9 13.6494 9.06015 13.3128 9.17071 13H14.8293C14.9398 13.3128 15 13.6494 15 14ZM10 10.5C10 11.3284 9.55228 12 9 12C8.44771 12 8 11.3284 8 10.5C8 9.67157 8.44771 9 9 9C9.55228 9 10 9.67157 10 10.5ZM15 12C15.5523 12 16 11.3284 16 10.5C16 9.67157 15.5523 9 15 9C14.4477 9 14 9.67157 14 10.5C14 11.3284 14.4477 12 15 12Z" fill="#7A7A7A"/>
</svg>
