<svg width="24" height="24" viewBox="0 0 24 24" fill="none" xmlns="http://www.w3.org/2000/svg">
<path d="M4.88889 11.5C4.88889 7.84878 7.84878 4.88889 11.5 4.88889C15.1512 4.88889 18.1111 7.84878 18.1111 11.5V12.4444H16.2222C15.179 12.4444 14.3333 13.2901 14.3333 14.3333V18.1111C14.3333 19.1543 15.179 20 16.2222 20H18.1111C19.1543 20 20 19.1543 20 18.1111V11.5C20 7.12481 16.6944 3.52169 12.4444 3.05188V3H11.5C6.80558 3 3 6.80558 3 11.5V18.1111C3 19.1543 3.84568 20 4.88889 20H6.77778C7.82098 20 8.66667 19.1543 8.66667 18.1111V14.3333C8.66667 13.2901 7.82098 12.4444 6.77778 12.4444H4.88889V11.5Z" fill="#7A7A7A"/>
</svg>
