<svg width="24" height="24" viewBox="0 0 24 24" fill="none" xmlns="http://www.w3.org/2000/svg">
<path fill-rule="evenodd" clip-rule="evenodd" d="M6.55849 3.99935C6.28198 3.69094 5.80781 3.66507 5.4994 3.94158C5.19099 4.21809 5.16513 4.69225 5.44163 5.00067L18.4416 19.5007C18.7181 19.8091 19.1923 19.8349 19.5007 19.5584C19.8091 19.2819 19.835 18.8078 19.5585 18.4993L6.55849 3.99935ZM21.8721 11.8187C21.5685 12.5202 20.6979 14.2512 18.9847 15.7034L16.686 13.1548C16.8886 12.6426 17 12.0843 17 11.5C17 9.01473 14.9853 7.00001 12.5 7.00001C12.0788 7.00001 11.671 7.05789 11.2843 7.16613L9.66256 5.3681C10.5096 5.13579 11.4527 5.00001 12.5 5.00001C18.776 5.00001 21.3067 9.87515 21.8721 11.1813C21.9613 11.3874 21.9613 11.6126 21.8721 11.8187ZM8 11.5C8 10.9157 8.11137 10.3574 8.31403 9.84518L6.0153 7.29662C4.30216 8.74889 3.43161 10.4798 3.12794 11.1813C3.03873 11.3874 3.03873 11.6126 3.12794 11.8187C3.69336 13.1249 6.22412 18 12.5 18C13.5474 18 14.4904 17.8642 15.3375 17.6319L13.7157 15.8339C13.329 15.9421 12.9212 16 12.5 16C10.0147 16 8 13.9853 8 11.5Z" fill="#7A7A7A"/>
</svg>
