<svg width="24" height="24" viewBox="0 0 24 24" fill="none" xmlns="http://www.w3.org/2000/svg">
<path d="M19.5929 14.0939C17.2114 12.6649 13.7552 12.623 11.8299 10.6213L7.12031 5.72497C6.6747 5.26169 6.05563 4.9772 5.42155 5.08278C3.7407 5.36264 1.96037 6.41537 3.73859 9.19343C5.88602 12.5483 6.14756 16.4622 6.00991 17.9999H7.66177V15.1978C7.66177 14.5451 8.19089 14.016 8.84359 14.016H8.91062C9.17191 14.016 9.42583 14.1026 9.63268 14.2622L12.8325 16.7317C13.8978 17.5539 15.2056 17.9999 16.5514 17.9999C17.8838 17.9999 19.1794 17.5627 20.2394 16.7554L20.6493 16.4432C21.253 15.9834 21.202 15.0594 20.5513 14.669L19.5929 14.0939V14.0939Z" fill="#7A7A7A"/>
</svg>
