<svg width="24" height="24" viewBox="0 0 24 24" fill="none" xmlns="http://www.w3.org/2000/svg">
<path fill-rule="evenodd" clip-rule="evenodd" d="M18 5.5H6C5.72386 5.5 5.5 5.72386 5.5 6V14.0833L7.29845 12.5846C7.69578 12.2535 8.28002 12.28 8.64574 12.6457L10.5 14.5L14.3861 11.4775C14.7472 11.1966 15.2528 11.1966 15.6139 11.4775L18.5 13.7222V6C18.5 5.72386 18.2761 5.5 18 5.5ZM6 4C4.89543 4 4 4.89543 4 6V18C4 19.1046 4.89543 20 6 20H18C19.1046 20 20 19.1046 20 18V6C20 4.89543 19.1046 4 18 4H6ZM8.5 10C9.32843 10 10 9.32843 10 8.5C10 7.67157 9.32843 7 8.5 7C7.67157 7 7 7.67157 7 8.5C7 9.32843 7.67157 10 8.5 10Z" fill="#7A7A7A"/>
</svg>
