<svg width="24" height="24" viewBox="0 0 24 24" fill="none" xmlns="http://www.w3.org/2000/svg">
<path fill-rule="evenodd" clip-rule="evenodd" d="M20.5 11.5C20.5 16.1944 16.6944 20 12 20C7.30558 20 3.5 16.1944 3.5 11.5C3.5 6.80558 7.30558 3 12 3C16.6944 3 20.5 6.80558 20.5 11.5ZM10.889 7.24682C10.8409 6.57308 11.3745 6 12.05 6C12.7254 6 13.2591 6.57308 13.2109 7.24682L12.8534 12.2519C12.8233 12.6734 12.4726 13 12.05 13C11.6274 13 11.2767 12.6734 11.2466 12.2519L10.889 7.24682ZM12 16C12.5523 16 13 15.5523 13 15C13 14.4477 12.5523 14 12 14C11.4477 14 11 14.4477 11 15C11 15.5523 11.4477 16 12 16Z" fill="#7A7A7A"/>
</svg>
