<svg width="24" height="24" viewBox="0 0 24 24" fill="none" xmlns="http://www.w3.org/2000/svg">
<path fill-rule="evenodd" clip-rule="evenodd" d="M20 3.55542C18.5178 4.99545 14.3931 7.9462 10.6666 8.88878C8.11795 9.53342 5.15588 11.5178 6.9144 15.5773C6.8417 15.5938 6.76992 15.6198 6.70069 15.6559C4.34468 16.8819 3.34828 19.2014 3.12928 20.2651C3.03028 20.746 3.33983 21.216 3.82066 21.315C4.3015 21.414 4.77155 21.1045 4.87054 20.6236C5.01756 19.9096 5.77804 18.1401 7.52139 17.2329C7.66656 17.1573 7.78216 17.0473 7.86336 16.9181C9.61467 18.4264 13.6191 19.3824 17.3333 15.111C18.3105 13.9873 20 10.2221 20 3.55542Z" fill="#7A7A7A"/>
</svg>
