<svg width="24" height="24" viewBox="0 0 24 24" fill="none" xmlns="http://www.w3.org/2000/svg">
<path fill-rule="evenodd" clip-rule="evenodd" d="M5 6.5C5 6.22386 5.22386 6 5.5 6H7.5C7.77614 6 8 6.22386 8 6.5V10.5H16V6.5C16 6.22386 16.2239 6 16.5 6H18.5C18.7761 6 19 6.22386 19 6.5V9H20.5C20.7761 9 21 9.22386 21 9.5V14.5C21 14.7761 20.7761 15 20.5 15H19V17.5C19 17.7761 18.7761 18 18.5 18H16.5C16.2239 18 16 17.7761 16 17.5V13.5H8V17.5C8 17.7761 7.77614 18 7.5 18H5.5C5.22386 18 5 17.7761 5 17.5V15H3.5C3.22386 15 3 14.7761 3 14.5V9.5C3 9.22386 3.22386 9 3.5 9H5V6.5Z" fill="#7A7A7A"/>
</svg>
