<svg width="24" height="24" viewBox="0 0 24 24" fill="none" xmlns="http://www.w3.org/2000/svg">
<path fill-rule="evenodd" clip-rule="evenodd" d="M8.21052 10.579L4 6.36842L9.89472 3L11.5789 4.68421L11.0608 5.59085C11.1318 5.62046 11.1999 5.66036 11.2629 5.71078L19.6839 12.4476C20.0286 12.7234 20.1019 13.2185 19.8518 13.5823L16.1272 19H17.4736C17.9387 19 18.3158 19.377 18.3158 19.8421C18.3158 20.3071 17.9387 20.6842 17.4736 20.6842H14.5371C14.5294 20.6843 14.5217 20.6843 14.514 20.6842H8.63157H6.52631C6.06123 20.6842 5.68421 20.3071 5.68421 19.8421C5.68421 19.377 6.06123 19 6.52631 19H7.78946V18.1578C7.78946 17.6928 8.16649 17.3157 8.63157 17.3157C9.09665 17.3157 9.47367 17.6928 9.47367 18.1578V19H14.0833L18.0202 13.2735L10.2314 7.04243L8.21052 10.579Z" fill="#7A7A7A"/>
</svg>
