<svg width="24" height="24" viewBox="0 0 24 24" fill="none" xmlns="http://www.w3.org/2000/svg">
<path fill-rule="evenodd" clip-rule="evenodd" d="M12 3.25C10.2051 3.25 8.75 4.70507 8.75 6.5V10H7.5C6.39543 10 5.5 10.8954 5.5 12V18C5.5 19.1046 6.39543 20 7.5 20H16.5C17.6046 20 18.5 19.1046 18.5 18V12C18.5 10.8954 17.6046 10 16.5 10H15.25V6.5C15.25 4.70507 13.7949 3.25 12 3.25ZM13.75 10V6.5C13.75 5.5335 12.9665 4.75 12 4.75C11.0335 4.75 10.25 5.5335 10.25 6.5V10H13.75ZM12 12.75C12.4142 12.75 12.75 13.0858 12.75 13.5V16.5C12.75 16.9142 12.4142 17.25 12 17.25C11.5858 17.25 11.25 16.9142 11.25 16.5V13.5C11.25 13.0858 11.5858 12.75 12 12.75Z" fill="#7A7A7A"/>
</svg>
