<svg width="24" height="24" viewBox="0 0 24 24" fill="none" xmlns="http://www.w3.org/2000/svg">
<path fill-rule="evenodd" clip-rule="evenodd" d="M6.96246 4C7.51475 4 7.96246 4.44772 7.96246 5V6.96243H9.92489C10.4772 6.96243 10.9249 7.41015 10.9249 7.96243C10.9249 8.51472 10.4772 8.96243 9.92489 8.96243H7.96246V10.9249C7.96246 11.4772 7.51475 11.9249 6.96246 11.9249C6.41018 11.9249 5.96246 11.4772 5.96246 10.9249V8.96243H4C3.44772 8.96243 3 8.51472 3 7.96243C3 7.41015 3.44772 6.96243 4 6.96243H5.96246V5C5.96246 4.44772 6.41018 4 6.96246 4ZM12.6953 7.96243C12.6953 7.41015 13.143 6.96243 13.6953 6.96243H19.6201C20.1724 6.96243 20.6201 7.41015 20.6201 7.96243C20.6201 8.51472 20.1724 8.96243 19.6201 8.96243H13.6953C13.143 8.96243 12.6953 8.51472 12.6953 7.96243ZM12.6953 18.1964C12.6953 17.6441 13.143 17.1964 13.6953 17.1964H19.6201C20.1724 17.1964 20.6201 17.6441 20.6201 18.1964C20.6201 18.7486 20.1724 19.1964 19.6201 19.1964H13.6953C13.143 19.1964 12.6953 18.7486 12.6953 18.1964ZM13.6953 13.9646C13.143 13.9646 12.6953 14.4123 12.6953 14.9646C12.6953 15.5169 13.143 15.9646 13.6953 15.9646H19.6201C20.1724 15.9646 20.6201 15.5169 20.6201 14.9646C20.6201 14.4123 20.1724 13.9646 19.6201 13.9646H13.6953ZM5.57478 14.0479C5.18426 13.6573 4.55109 13.6573 4.16057 14.0479C3.77004 14.4384 3.77004 15.0716 4.16057 15.4621L5.54822 16.8497L4.16055 18.2374C3.77003 18.6279 3.77003 19.2611 4.16055 19.6516C4.55108 20.0421 5.18424 20.0421 5.57477 19.6516L6.96243 18.2639L8.3501 19.6516C8.74062 20.0421 9.37379 20.0421 9.76431 19.6516C10.1548 19.2611 10.1548 18.6279 9.76431 18.2374L8.37665 16.8497L9.7643 15.4621C10.1548 15.0716 10.1548 14.4384 9.7643 14.0479C9.37377 13.6573 8.74061 13.6573 8.35008 14.0479L6.96243 15.4355L5.57478 14.0479Z" fill="#7A7A7A"/>
</svg>
