<svg width="24" height="24" viewBox="0 0 24 24" fill="none" xmlns="http://www.w3.org/2000/svg">
<path fill-rule="evenodd" clip-rule="evenodd" d="M12.25 2C10.4491 2 8.98913 3.45994 8.98913 5.26087V11.021C8.98913 12.8219 10.4491 14.2819 12.25 14.2819C14.0509 14.2819 15.5109 12.8219 15.5109 11.021V5.26087C15.5109 3.45994 14.0509 2 12.25 2ZM7.63043 9.93404C7.63043 9.48381 7.26545 9.11882 6.81522 9.11882C6.36499 9.11882 6 9.48381 6 9.93404V11.021C6 14.1965 8.36819 16.8188 11.4348 17.2183V19.9884H10.0761C9.62585 19.9884 9.26087 20.3534 9.26087 20.8036C9.26087 21.2538 9.62585 21.6188 10.0761 21.6188H14.4239C14.8741 21.6188 15.2391 21.2538 15.2391 20.8036C15.2391 20.3534 14.8741 19.9884 14.4239 19.9884H13.0652V17.2183C16.1318 16.8188 18.5 14.1965 18.5 11.021V9.93404C18.5 9.48381 18.135 9.11882 17.6848 9.11882C17.2346 9.11882 16.8696 9.48381 16.8696 9.93404V11.021C16.8696 13.5723 14.8013 15.6406 12.25 15.6406C9.69868 15.6406 7.63043 13.5723 7.63043 11.021V9.93404Z" fill="#7A7A7A"/>
</svg>
