<svg width="24" height="24" viewBox="0 0 24 24" fill="none" xmlns="http://www.w3.org/2000/svg">
<path fill-rule="evenodd" clip-rule="evenodd" d="M12 20C16.4183 20 20 16.4183 20 12C20 11.707 19.9843 11.4177 19.9536 11.1329C19.9311 10.9245 19.63 10.9027 19.5422 11.093C18.7501 12.8091 17.0141 14 15 14C12.2386 14 10 11.7614 10 9C10 6.98588 11.1909 5.24991 12.907 4.45783C13.0973 4.37 13.0755 4.06891 12.8671 4.04645C12.5823 4.01575 12.293 4 12 4C7.58172 4 4 7.58172 4 12C4 16.4183 7.58172 20 12 20Z" fill="#7A7A7A"/>
</svg>
