<svg width="24" height="24" viewBox="0 0 24 24" fill="none" xmlns="http://www.w3.org/2000/svg">
<path fill-rule="evenodd" clip-rule="evenodd" d="M2.39282 4.79416C2.39282 4.1769 2.89321 3.67651 3.51047 3.67651H20.2752C20.8924 3.67651 21.3928 4.1769 21.3928 4.79416V18.2059C21.3928 18.8232 20.8924 19.3236 20.2752 19.3236H3.51047C2.89321 19.3236 2.39282 18.8232 2.39282 18.2059V4.79416ZM7.98093 5.91179H15.8045V10.3824H7.98093V5.91179ZM15.8045 12.6177H7.98093V17.0883H15.8045V12.6177ZM3.51042 5.91179H5.74571V8.14708H3.51042V5.91179ZM20.2751 5.91179H18.0398V8.14708H20.2751V5.91179ZM3.51042 10.3824H5.74571V12.6177H3.51042V10.3824ZM20.2751 10.3824H18.0398V12.6177H20.2751V10.3824ZM3.51042 14.853H5.74571V17.0883H3.51042V14.853ZM20.2751 14.853H18.0398V17.0883H20.2751V14.853Z" fill="#7A7A7A"/>
</svg>
