<svg width="20" height="20" viewBox="0 0 20 20" fill="none" xmlns="http://www.w3.org/2000/svg">
<path fill-rule="evenodd" clip-rule="evenodd" d="M3.125 7.91667C3.125 5.2703 5.2703 3.125 7.91667 3.125C10.563 3.125 12.7083 5.2703 12.7083 7.91667C12.7083 10.563 10.563 12.7083 7.91667 12.7083C5.2703 12.7083 3.125 10.563 3.125 7.91667ZM7.91667 1.875C4.57995 1.875 1.875 4.57995 1.875 7.91667C1.875 11.2534 4.57995 13.9583 7.91667 13.9583C9.35991 13.9583 10.685 13.4523 11.724 12.6079L16.2247 17.1086C16.4688 17.3527 16.8645 17.3527 17.1086 17.1086C17.3527 16.8645 17.3527 16.4688 17.1086 16.2247L12.6079 11.724C13.4523 10.685 13.9583 9.35991 13.9583 7.91667C13.9583 4.57995 11.2534 1.875 7.91667 1.875Z" fill="#7A7A7A"/>
</svg>
